<?xml version="1.0" standalone="no"?>
<!DOCTYPE svg PUBLIC "-//W3C//DTD SVG 20010904//EN"
 "http://www.w3.org/TR/2001/REC-SVG-20010904/DTD/svg10.dtd">
<svg version="1.0" xmlns="http://www.w3.org/2000/svg"
 width="512.000000pt" height="512.000000pt" viewBox="0 0 512.000000 512.000000"
 preserveAspectRatio="xMidYMid meet">

<g transform="translate(0.000000,512.000000) scale(0.100000,-0.100000)"
fill="#000000" stroke="none">
<path d="M745 4935 l-25 -24 0 -1471 0 -1471 25 -24 c43 -44 63 -36 307 127
l228 151 228 -151 c125 -84 236 -152 247 -152 11 0 127 36 258 79 l237 79 231
-39 c127 -21 240 -39 250 -39 10 0 120 85 245 189 l226 190 306 -230 c173
-130 314 -229 326 -229 12 0 136 38 276 85 176 58 260 91 273 106 16 20 17 81
17 971 l0 949 -43 47 c-24 26 -202 223 -396 437 -194 215 -366 402 -382 418
l-29 27 -1391 0 -1390 0 -24 -25z m2695 -550 l0 -416 25 -24 24 -25 376 0 375
0 -2 -852 -3 -851 -175 -59 c-96 -32 -182 -60 -191 -63 -9 -3 -133 83 -329
230 -230 173 -321 235 -341 235 -21 0 -81 -45 -256 -191 -125 -105 -234 -193
-241 -196 -8 -3 -116 11 -241 32 l-228 38 -231 -77 -230 -77 -234 155 c-146
98 -242 156 -258 156 -15 0 -97 -48 -213 -125 l-187 -125 0 1325 0 1325 1280
0 1280 0 0 -415z m438 -17 c139 -152 252 -279 252 -282 0 -4 -119 -6 -265 -6
l-265 0 0 297 c0 249 2 295 13 283 8 -8 127 -140 265 -292z"/>
<path d="M1120 4480 l0 -80 160 0 160 0 0 80 0 80 -160 0 -160 0 0 -80z"/>
<path d="M1600 4480 l0 -80 800 0 800 0 0 80 0 80 -800 0 -800 0 0 -80z"/>
<path d="M1120 4080 l0 -80 320 0 320 0 0 80 0 80 -320 0 -320 0 0 -80z"/>
<path d="M1920 4080 l0 -80 640 0 640 0 0 80 0 80 -640 0 -640 0 0 -80z"/>
<path d="M1120 3680 l0 -80 1040 0 1040 0 0 80 0 80 -1040 0 -1040 0 0 -80z"/>
<path d="M1120 3280 l0 -80 160 0 160 0 0 80 0 80 -160 0 -160 0 0 -80z"/>
<path d="M1600 3280 l0 -80 1200 0 1200 0 0 80 0 80 -1200 0 -1200 0 0 -80z"/>
<path d="M1120 2880 l0 -80 80 0 80 0 0 80 0 80 -80 0 -80 0 0 -80z"/>
<path d="M1440 2880 l0 -80 80 0 80 0 0 80 0 80 -80 0 -80 0 0 -80z"/>
<path d="M1760 2880 l0 -80 1120 0 1120 0 0 80 0 80 -1120 0 -1120 0 0 -80z"/>
<path d="M2953 1979 c-120 -100 -225 -188 -234 -195 -13 -12 -49 -2 -247 64
l-232 77 -234 -78 -235 -78 -233 155 c-144 97 -242 156 -258 156 -28 0 -536
-333 -551 -361 -5 -11 -9 -325 -9 -764 l0 -746 25 -24 24 -25 1791 0 1791 0
24 25 25 24 0 831 0 831 -25 24 c-13 14 -34 25 -47 25 -13 0 -125 -34 -250
-76 l-228 -76 -313 196 c-201 126 -323 196 -339 196 -20 0 -84 -47 -245 -181z
m561 -189 c167 -104 312 -190 323 -190 10 0 105 29 211 64 l192 65 0 -705 0
-704 -1680 0 -1680 0 0 659 0 658 200 133 200 133 228 -151 c125 -84 236 -152
247 -152 11 0 124 35 252 77 l233 78 233 -78 c128 -42 242 -77 255 -77 14 0
105 69 249 190 126 104 229 190 231 190 1 0 139 -85 306 -190z"/>
<path d="M1120 1360 l0 -80 720 0 720 0 0 80 0 80 -720 0 -720 0 0 -80z"/>
<path d="M2720 1360 l0 -80 560 0 560 0 0 80 0 80 -560 0 -560 0 0 -80z"/>
<path d="M1120 960 l0 -80 560 0 560 0 0 80 0 80 -560 0 -560 0 0 -80z"/>
<path d="M2400 960 l0 -80 400 0 400 0 0 80 0 80 -400 0 -400 0 0 -80z"/>
<path d="M3360 960 l0 -80 80 0 80 0 0 80 0 80 -80 0 -80 0 0 -80z"/>
</g>
</svg>
